<?xml version="1.0" encoding="UTF-8" standalone="no"?>
<!-- Created with Inkscape (http://www.inkscape.org/) -->

<svg
   xmlns:dc="http://purl.org/dc/elements/1.1/"
   xmlns:cc="http://creativecommons.org/ns#"
   xmlns:rdf="http://www.w3.org/1999/02/22-rdf-syntax-ns#"
   xmlns:svg="http://www.w3.org/2000/svg"
   xmlns="http://www.w3.org/2000/svg"
   xmlns:sodipodi="http://sodipodi.sourceforge.net/DTD/sodipodi-0.dtd"
   xmlns:inkscape="http://www.inkscape.org/namespaces/inkscape"
   width="264.58334mm"
   height="128.41531mm"
   viewBox="0 0 264.58334 128.41531"
   version="1.1"
   id="svg1101"
   inkscape:version="0.92.4 (5da689c313, 2019-01-14)"
   sodipodi:docname="Toyota GR.svg">
  <defs
     id="defs1095">
    <clipPath
       clipPathUnits="userSpaceOnUse"
       id="clipPath457">
      <path
         d="M 0,0 H 841.89 V 595.276 H 0 Z"
         id="path455"
         inkscape:connector-curvature="0" />
    </clipPath>
  </defs>
  <sodipodi:namedview
     id="base"
     pagecolor="#ffffff"
     bordercolor="#666666"
     borderopacity="1.0"
     inkscape:pageopacity="0.0"
     inkscape:pageshadow="2"
     inkscape:zoom="1"
     inkscape:cx="536.71294"
     inkscape:cy="137.83806"
     inkscape:document-units="mm"
     inkscape:current-layer="layer1"
     showgrid="false"
     fit-margin-top="0"
     fit-margin-left="0"
     fit-margin-right="0"
     fit-margin-bottom="0"
     inkscape:window-width="1920"
     inkscape:window-height="1001"
     inkscape:window-x="-9"
     inkscape:window-y="-9"
     inkscape:window-maximized="1" />
  <metadata
     id="metadata1098">
    <rdf:RDF>
      <cc:Work
         rdf:about="">
        <dc:format>image/svg+xml</dc:format>
        <dc:type
           rdf:resource="http://purl.org/dc/dcmitype/StillImage" />
        <dc:title></dc:title>
      </cc:Work>
    </rdf:RDF>
  </metadata>
  <g
     inkscape:label="Layer 1"
     inkscape:groupmode="layer"
     id="layer1"
     transform="translate(255.77613,146.46392)">
    <g
       id="g1255"
       transform="matrix(13.003676,0,0,13.003676,3070.2547,187.05961)">
      <g
         transform="matrix(0.35277777,0,0,-0.35277777,-235.6721,-25.459315)"
         id="g379">
        <path
           inkscape:connector-curvature="0"
           id="path381"
           style="fill:#ffffff;fill-opacity:1;fill-rule:nonzero;stroke:none"
           d="M 0,0 -6.768,-26.92 H -56.301 L -49.53,0 Z M 0.688,0.536 H 0 -49.53 -49.949 l -0.102,-0.405 -6.77,-26.92 -0.167,-0.668 h 0.687 49.533 0.418 l 0.101,0.406 6.77,26.92 z" />
      </g>
      <g
         transform="matrix(0.35277777,0,0,-0.35277777,-244.41859,-25.459315)"
         id="g383">
        <path
           inkscape:connector-curvature="0"
           id="path385"
           style="fill:#ed1d24;fill-opacity:1;fill-rule:nonzero;stroke:none"
           d="M 0,0 H -0.514 L -7.288,-26.92 H 18.025 L 24.793,0 Z" />
      </g>
      <g
         transform="matrix(0.35277777,0,0,-0.35277777,-253.14519,-25.459315)"
         id="g387">
        <path
           inkscape:connector-curvature="0"
           id="path389"
           style="fill:#000000;fill-opacity:1;fill-rule:nonzero;stroke:none"
           d="M 0,0 -6.771,-26.92 H 17.854 L 24.626,0 Z" />
      </g>
      <g
         transform="matrix(0.35277777,0,0,-0.35277777,-237.57933,-20.308229)"
         id="g399">
        <path
           inkscape:connector-curvature="0"
           id="path401"
           style="fill:#ffffff;fill-opacity:1;fill-rule:nonzero;stroke:none"
           d="M 0,0 C -0.207,-1.1 -0.438,-1.732 -0.801,-2.459 -1.479,-3.816 -2.85,-4.556 -4.78,-4.814 -5.533,-4.911 -6.544,-4.881 -6.544,-4.881 l 4.033,-5.729 h -5.981 l -5.601,7.972 c 0,0 4.878,0.013 5.384,0.013 1.167,0 2.709,0.343 3.141,1.147 0.13,0.242 0.315,0.655 0.322,1.089 0.003,0.541 -0.522,0.997 -1.416,0.997 -0.894,0 -8.772,0.007 -8.772,0.007 l -2.774,-11.07 h -5.661 l 3.554,13.793 c 0,0 13.416,0.003 16.207,0.003 C -1.073,3.341 0.349,1.813 0,0" />
      </g>
      <g
         transform="matrix(0.35277777,0,0,-0.35277777,-246.70734,-19.474262)"
         id="g403">
        <path
           inkscape:connector-curvature="0"
           id="path405"
           style="fill:#ffffff;fill-opacity:1;fill-rule:nonzero;stroke:none"
           d="m 0,0 -9.322,-0.01 -0.876,-2.616 h 4.631 l -0.755,-2.53 h -7.466 c -1.63,0 -2.313,0.399 -2.147,1.543 0.183,1.299 0.67,2.397 1.109,3.601 0.899,2.433 2.196,3.051 7.595,3.051 2.865,0 8.084,-0.004 8.084,-0.004 l 0.855,2.739 c 0,0 -7.706,0.004 -9.711,0.004 -7.913,0 -10.622,-0.926 -12.134,-4.796 -0.51,-1.315 -1.281,-3.739 -1.621,-5.734 -0.405,-2.352 1.414,-3.273 3.352,-3.339 2.678,-0.089 16.121,-0.046 16.121,-0.046 z" />
      </g>
      <g
         transform="matrix(0.35277777,0,0,-0.35277777,-227.82179,-21.475113)"
         id="g407" />
      <g
         transform="matrix(0.35277777,0,0,-0.35277777,-214.47133,-24.75002)"
         id="g411" />
      <g
         transform="matrix(0.35277777,0,0,-0.35277777,-224.07333,-19.484211)"
         id="g415" />
      <g
         transform="matrix(0.35277777,0,0,-0.35277777,-220.90103,-21.478568)"
         id="g419" />
      <g
         transform="matrix(0.35277777,0,0,-0.35277777,-228.0588,-24.751324)"
         id="g423" />
      <g
         transform="matrix(0.35277777,0,0,-0.35277777,-221.45602,-24.751324)"
         id="g427" />
      <g
         transform="matrix(0.35277777,0,0,-0.35277777,-217.26703,-21.478568)"
         id="g431" />
      <g
         transform="matrix(0.35277777,0,0,-0.35277777,-231.23877,-16.295278)"
         id="g435" />
      <g
         transform="matrix(0.35277777,0,0,-0.35277777,-227.6434,-16.293124)"
         id="g439" />
      <g
         transform="matrix(0.35277777,0,0,-0.35277777,-224.79448,-18.761192)"
         id="g443" />
      <g
         transform="matrix(0.35277777,0,0,-0.35277777,-224.42517,-16.296264)"
         id="g447" />
      <g
         id="g451"
         transform="matrix(0.35277777,0,0,-0.35277777,-499.42615,0.4393725)">
        <g
           clip-path="url(#clipPath457)"
           id="g453">
          <g
             transform="translate(789.5443,50.2261)"
             id="g459" />
        </g>
      </g>
      <g
         transform="matrix(0.35277777,0,0,-0.35277777,-232.94523,-24.682815)"
         id="g463" />
      <g
         transform="matrix(0.35277777,0,0,-0.35277777,-219.33588,-24.354626)"
         id="g467" />
      <g
         transform="matrix(0.35277777,0,0,-0.35277777,-226.20566,-23.470283)"
         id="g471" />
      <g
         transform="matrix(0.35277777,0,0,-0.35277777,-220.69015,-15.351596)"
         id="g483" />
      <g
         transform="matrix(0.35277777,0,0,-0.35277777,-231.73593,-18.140762)"
         id="g487" />
      <g
         transform="matrix(0.35277777,0,0,-0.35277777,-231.28883,-20.908939)"
         id="g491" />
    </g>
  </g>
</svg>
